<svg viewBox="0 0 56 56" class="wd-accent-radio-tower wd-accent" height="100%" width="48" xmlns="http://www.w3.org/2000/svg" style="border-radius: inherit; display: block;"> <g class="wd-icon-container" fill-rule="evenodd" fill="none"> <path class="color-500" d="M28.068 24a4.08 4.08 0 0 1-.136 0l-2.564 6.758L28 32.673l2.632-1.915L28.068 24zm-2.072-.537a4 4 0 1 1 4.007 0l9.932 26.182a1 1 0 0 1-.248 1.082l.002.003c-.288.286-.733.407-1.196.132a1.004 1.004 0 0 1-.023-.014L28 44.45l-10.47 6.398-.023.014c-.463.275-.908.154-1.196-.132l.002-.003a1 1 0 0 1-.248-1.082l9.931-26.182zm-2.633 12.582L26.3 33.91l-1.667-1.212-1.27 3.348zm8.004-3.348L29.7 33.909l2.937 2.136-1.27-3.348zm2.986 7.87l-4.435 2.71 7.111 4.347-2.676-7.056zM18.97 47.625l7.111-4.346-4.435-2.71-2.676 7.056zm15.265-19.516l-.754-1.972a8.095 8.095 0 1 0-10.914-.128l-.76 1.987a10.093 10.093 0 0 1-3.808-7.9C18 14.519 22.52 10 28.095 10c5.575 0 10.094 4.52 10.094 10.095 0 3.22-1.522 6.148-3.953 8.013zm2.118 5.542l-.729-1.907A13.988 13.988 0 0 0 42 20c0-7.732-6.268-14-14-14s-14 6.268-14 14c0 4.92 2.537 9.246 6.375 11.743l-.73 1.907A16.004 16.004 0 0 1 12 20c0-8.837 7.163-16 16-16s16 7.163 16 16c0 5.68-2.987 10.797-7.646 13.65zM28 35.146l-5.2 3.782 5.2 3.178 5.2-3.178-5.2-3.782zM28 22a2 2 0 1 0 0-4 2 2 0 0 0 0 4z" fill-rule="nonzero" fill="#0874E1"></path> </g> </svg>